<?xml version="1.0" encoding="utf-8"?>
<!-- Generator: Adobe Illustrator 21.0.0, SVG Export Plug-In . SVG Version: 6.00 Build 0)  -->
<svg version="1.1" id="图层_1" xmlns="http://www.w3.org/2000/svg" xmlns:xlink="http://www.w3.org/1999/xlink" x="0px" y="0px"
	 viewBox="0 0 36 36" style="enable-background:new 0 0 36 36;" xml:space="preserve">
<style type="text/css">
	.st0{fill:#45B364;}
	.st1{fill:#FFFFFF;}
	.st2{fill:#45B264;}
	.st3{fill:#30B1F5;}
	.st4{fill:none;}
	.st5{fill:#26CBB2;}
	.st6{fill:#90CAF9;}
	.st7{fill:#E51373;}
	.st8{fill:#F4A156;}
	.st9{fill:#52C6AF;}
	.st10{fill-rule:evenodd;clip-rule:evenodd;fill:#0DB4E9;}
	.st11{fill:#F98B60;}
	.st12{fill:#1799DD;}
	.st13{fill:#388E3C;}
	.st14{fill:#FCFCFC;}
	.st15{fill:#03A9F4;}
	.st16{fill:#FD9777;}
	.st17{fill:#4ACFBB;}
	.st18{fill:#49D0F2;}
	.st19{fill-rule:evenodd;clip-rule:evenodd;fill:#1799DD;}
	.st20{fill:#12AEF5;}
	.st21{fill:#0FB4EA;}
	.st22{fill:#2DC667;}
	.st23{fill:#4AD1F3;}
</style>
<g>
	<path class="st9" d="M32.1,4.5h-2.4v1.6c0,1.9-1.6,3.5-3.5,3.5S22.7,8,22.7,6.1V4.5h-1.3v1.6c0,1.9-1.6,3.5-3.5,3.5
		S14.5,8,14.5,6.1V4.5h-1.3v1.6c0,1.9-1.6,3.5-3.5,3.5S6.3,8,6.3,6.1V4.5H3.9c-1,0-1.9,0.8-1.9,1.9v27.7c0,1,0.8,1.9,1.9,1.9h28.1
		c1,0,1.9-0.8,1.9-1.9V6.4C33.9,5.3,33.1,4.5,32.1,4.5z"/>
	<path class="st1" d="M27.9,17.1H8.1c-0.8,0-1.5-0.7-1.5-1.5v0c0-0.8,0.7-1.5,1.5-1.5h19.8c0.8,0,1.5,0.7,1.5,1.5v0
		C29.4,16.4,28.7,17.1,27.9,17.1z"/>
	<path class="st1" d="M27.9,23.9H8.1c-0.8,0-1.5-0.7-1.5-1.5v0c0-0.8,0.7-1.5,1.5-1.5h19.8c0.8,0,1.5,0.7,1.5,1.5v0
		C29.4,23.2,28.7,23.9,27.9,23.9z"/>
	<path class="st1" d="M27.9,30.7H8.1c-0.8,0-1.5-0.7-1.5-1.5v0c0-0.8,0.7-1.5,1.5-1.5h19.8c0.8,0,1.5,0.7,1.5,1.5v0
		C29.4,30,28.7,30.7,27.9,30.7z"/>
	<path class="st9" d="M9.7,8.2L9.7,8.2C8.8,8.2,8,7.4,8,6.5V1.7C8,0.8,8.8,0,9.7,0h0c0.9,0,1.7,0.8,1.7,1.7v4.8
		C11.4,7.4,10.7,8.2,9.7,8.2z"/>
	<path class="st9" d="M18,8.2L18,8.2c-0.9,0-1.7-0.8-1.7-1.7V1.7C16.3,0.8,17.1,0,18,0h0c0.9,0,1.7,0.8,1.7,1.7v4.8
		C19.7,7.4,18.9,8.2,18,8.2z"/>
	<path class="st9" d="M26.3,8.2L26.3,8.2c-0.9,0-1.7-0.8-1.7-1.7V1.7c0-0.9,0.8-1.7,1.7-1.7h0C27.2,0,28,0.8,28,1.7v4.8
		C28,7.4,27.2,8.2,26.3,8.2z"/>
</g>
</svg>
