<?xml version="1.0" encoding="utf-8"?>
<!-- Generator: Adobe Illustrator 21.0.0, SVG Export Plug-In . SVG Version: 6.00 Build 0)  -->
<svg version="1.1" id="图层_1" xmlns="http://www.w3.org/2000/svg" xmlns:xlink="http://www.w3.org/1999/xlink" x="0px" y="0px"
	 viewBox="0 0 36 36" style="enable-background:new 0 0 36 36;" xml:space="preserve">
<style type="text/css">
	.st0{fill:#45B364;}
	.st1{fill:#FFFFFF;}
	.st2{fill:#45B264;}
	.st3{fill:#30B1F5;}
	.st4{fill:none;}
	.st5{fill:#26CBB2;}
	.st6{fill:#90CAF9;}
	.st7{fill:#E51373;}
	.st8{fill:#F4A156;}
	.st9{fill:#52C6AF;}
	.st10{fill-rule:evenodd;clip-rule:evenodd;fill:#0DB4E9;}
	.st11{fill:#F98B60;}
	.st12{fill:#1799DD;}
	.st13{fill:#388E3C;}
	.st14{fill:#FCFCFC;}
	.st15{fill:#03A9F4;}
	.st16{fill:#FD9777;}
	.st17{fill:#4ACFBB;}
	.st18{fill:#49D0F2;}
	.st19{fill-rule:evenodd;clip-rule:evenodd;fill:#1799DD;}
	.st20{fill:#12AEF5;}
	.st21{fill:#0FB4EA;}
	.st22{fill:#2DC667;}
	.st23{fill:#4AD1F3;}
</style>
<g>
	<path class="st0" d="M26.8,36H9.2c-1.1,0-2-0.9-2-2V2c0-1.1,0.9-2,2-2h17.6c1.1,0,2,0.9,2,2v32C28.8,35.1,27.9,36,26.8,36z"/>
	<rect x="9" y="3.7" class="st1" width="18" height="26.8"/>
	<circle class="st1" cx="18" cy="33.2" r="1.2"/>
	<g>
		<path class="st2" d="M23.4,10.4L19.8,17h2.8v1.5h-3.3v2h3.3v1.5h-3.3v2.9h-1.8v-2.9H14v-1.5h3.4v-2H14V17h2.9l-3.5-6.6h2.1
			l2.5,5.1c0.1,0.3,0.3,0.7,0.5,1.1h0c0.1-0.4,0.3-0.7,0.5-1.1l2.5-5.1H23.4z"/>
	</g>
</g>
</svg>
